# xmcd
#
# Track frame offsets: 
#        150
#        17390
#        38811
#        53212
#        64799
#        94809
#        112018
#        137809
#        160189
#        174057
#
# Disc length: 2736 seconds
#
# Revision: 5
# Processed by: cddbd v1.5.2PL0 Copyright (c) Steve Scherf et al.
# Submitted via: ExactAudioCopy v0.95a3
#
DISCID=790aae0a
DTITLE=Tired Pony - The Place We Ran From
DYEAR=2010
DGENRE=Alt. Rock
TTITLE0=Northwestern Skies
TTITLE1=Get On the Road (ft. Zooey Deschanel)
TTITLE2=Point Me at Lost Islands (ft. Zooey Deschanel)
TTITLE3=Dead American Writers
TTITLE4=Held In the Arms of Your Words
TTITLE5=That Silver Necklace
TTITLE6=I Am a Landslide
TTITLE7=The Deepest Ocean There Is
TTITLE8=The Good Book (ft. Tom Smith)
TTITLE9=Pieces
EXTD=YEAR: 2010
EXTT0=
EXTT1=
EXTT2=
EXTT3=
EXTT4=
EXTT5=
EXTT6=
EXTT7=
EXTT8=
EXTT9=
PLAYORDER=
